<svg width="1379" height="28" viewBox="0 0 1379 28" fill="none" xmlns="http://www.w3.org/2000/svg">
<path d="M5.56787 18.0527C5.39014 18.0527 5.23975 18.0083 5.1167 17.9194C4.98682 17.8306 4.83301 17.7041 4.65527 17.54C4.47754 17.376 4.2793 17.1743 4.06055 16.9351C3.97852 16.8394 3.9375 16.7539 3.9375 16.6787C3.9375 16.6035 3.97852 16.5181 4.06055 16.4224C4.48438 15.9438 4.87061 15.5918 5.21924 15.3662C5.30127 15.3115 5.41748 15.2842 5.56787 15.2842C6.03271 15.2842 6.43262 15.1099 6.76758 14.7612C7.10938 14.4126 7.27344 13.8486 7.25977 13.0693C7.25293 12.2285 7.04443 11.6406 6.63428 11.3057C6.23096 10.9707 5.67725 10.8032 4.97314 10.8032H4.48096C4.02979 10.8032 3.72217 10.8989 3.55811 11.0903C3.39404 11.2817 3.31201 11.6099 3.31201 12.0747V22.4209C3.31201 22.626 3.26758 22.7695 3.17871 22.8516C3.09668 22.9268 2.95312 22.9644 2.74805 22.9644H0.563965C0.358887 22.9644 0.211914 22.9268 0.123047 22.8516C0.0410156 22.7695 0 22.626 0 22.4209V11.0083C0 10.3247 0.0615234 9.78467 0.18457 9.38818C0.314453 8.98486 0.560547 8.69775 0.922852 8.52686C1.29199 8.34912 1.82861 8.26025 2.53271 8.26025H4.97314C6.93506 8.26025 8.3877 8.64648 9.33105 9.41895C10.2744 10.1846 10.7461 11.3604 10.7461 12.9463C10.7461 14.1357 10.4966 15.1064 9.99756 15.8584C9.50537 16.6104 8.86279 17.1641 8.06982 17.5195C7.28369 17.875 6.44971 18.0527 5.56787 18.0527ZM15.4654 23.2207C14.7339 23.2207 14.1255 23.1592 13.6402 23.0361C13.1616 22.9131 12.7754 22.7661 12.4815 22.5952C12.1944 22.4175 11.9688 22.2568 11.8047 22.1133C11.6817 21.9971 11.668 21.8672 11.7637 21.7236L12.8096 20.1753C12.96 19.9565 13.1309 19.9429 13.3223 20.1343C13.5205 20.3257 13.7871 20.5137 14.1221 20.6982C14.4639 20.876 14.8877 20.9648 15.3936 20.9648C15.8447 20.9648 16.2139 20.8896 16.501 20.7393C16.7949 20.582 16.9419 20.3564 16.9419 20.0625C16.9419 19.8574 16.877 19.6899 16.7471 19.5601C16.6172 19.4302 16.3882 19.2969 16.0601 19.1602C15.732 19.0234 15.2739 18.8491 14.6861 18.6372C13.8179 18.3228 13.1616 17.9434 12.7173 17.499C12.273 17.0547 12.0508 16.4053 12.0508 15.5508C12.0508 14.7646 12.2661 14.1255 12.6968 13.6333C13.1343 13.1411 13.6914 12.7822 14.3682 12.5566C15.0518 12.3242 15.7627 12.208 16.501 12.208C17.4375 12.208 18.0938 12.2969 18.4697 12.4746C18.8526 12.6455 19.0987 12.7788 19.208 12.8745C19.3106 12.9634 19.3823 13.0659 19.4234 13.1821C19.5122 13.4487 19.5806 13.8008 19.6284 14.2383C19.6558 14.4912 19.5908 14.6587 19.4336 14.7407C19.3516 14.7886 19.2217 14.8398 19.044 14.8945C18.8662 14.9492 18.6885 14.9971 18.5108 15.0381C18.333 15.0791 18.1997 15.0996 18.1109 15.0996C18.0835 15.0996 18.0528 15.0928 18.0186 15.0791C17.9912 15.0586 17.94 15.0142 17.8648 14.9458C17.7759 14.8569 17.6221 14.7544 17.4033 14.6382C17.1914 14.522 16.8975 14.4639 16.5215 14.4639C16.1524 14.4639 15.8413 14.5254 15.5884 14.6484C15.3423 14.7646 15.2193 14.9731 15.2193 15.2739C15.2193 15.6021 15.3765 15.8481 15.6909 16.0122C16.0122 16.1763 16.5386 16.3882 17.27 16.6479C17.8443 16.8462 18.3433 17.0649 18.7671 17.3042C19.1978 17.5366 19.5293 17.8442 19.7617 18.2271C19.9942 18.603 20.1104 19.1123 20.1104 19.7549C20.1104 20.5889 19.8814 21.2622 19.4234 21.7749C18.9722 22.2808 18.3911 22.6499 17.6802 22.8823C16.9761 23.1079 16.2378 23.2207 15.4654 23.2207ZM22.5533 27.8965C22.3003 27.8965 22.1089 27.8691 21.979 27.8145C21.8492 27.7666 21.7398 27.7051 21.6509 27.6299C21.4732 27.459 21.2818 27.2197 21.0767 26.9121C21.0288 26.8369 20.9776 26.748 20.9229 26.6455C20.8682 26.5498 20.8409 26.4678 20.8409 26.3994C20.8409 26.3242 20.8579 26.2559 20.8921 26.1943C20.9263 26.1328 20.9673 26.0747 21.0152 26.02C21.1245 25.8765 21.2579 25.7261 21.4151 25.5688C21.5723 25.4185 21.7056 25.2988 21.815 25.21C21.8902 25.1484 21.9517 25.1074 21.9995 25.0869C22.0474 25.0732 22.0884 25.0664 22.1226 25.0664C22.1568 25.0664 22.208 25.0732 22.2764 25.0869C22.3448 25.1006 22.4473 25.1074 22.584 25.1074C23.0557 25.1074 23.5479 24.9536 24.0606 24.646C24.5733 24.3384 25.0791 23.7607 25.5782 22.9131C25.0586 22.4346 24.5459 21.8364 24.0401 21.1187C23.5411 20.394 23.0899 19.6113 22.6866 18.7705C22.2832 17.9229 21.9585 17.0786 21.7124 16.2378C21.4732 15.397 21.3536 14.6211 21.3536 13.9102C21.3536 13.7598 21.3912 13.6401 21.4663 13.5513C21.7808 13.1616 22.2286 12.7549 22.8096 12.3311C22.9121 12.2627 23.0044 12.2285 23.0865 12.2285C23.1753 12.2285 23.2676 12.2627 23.3633 12.3311C23.6778 12.5566 23.941 12.7686 24.1529 12.9668C24.3716 13.165 24.5562 13.3599 24.7066 13.5513C24.7818 13.6401 24.8194 13.7666 24.8194 13.9307V13.8896C24.8194 14.4297 24.8843 15.0005 25.0142 15.6021C25.1441 16.2036 25.3218 16.7915 25.5474 17.3657C25.773 17.9331 26.0259 18.4492 26.3062 18.9141C26.5865 19.3721 26.877 19.7378 27.1778 20.0112H27.229C27.3658 19.7515 27.5162 19.3789 27.6802 18.8936C27.8511 18.4014 28.0118 17.8579 28.1621 17.2632C28.3125 16.6616 28.4356 16.0669 28.5313 15.479C28.627 14.8843 28.6748 14.3579 28.6748 13.8999V13.9307C28.6748 13.7666 28.709 13.6401 28.7774 13.5513C28.9346 13.3599 29.1192 13.165 29.3311 12.9668C29.543 12.7686 29.7994 12.5566 30.1001 12.3311C30.1958 12.2627 30.2847 12.2285 30.3667 12.2285C30.4624 12.2285 30.5513 12.2627 30.6333 12.3311C30.941 12.5566 31.2007 12.7686 31.4126 12.9668C31.6245 13.165 31.8057 13.3599 31.9561 13.5513C32.0245 13.6401 32.0586 13.7632 32.0586 13.9204C32.0518 14.5425 31.9322 15.356 31.6997 16.3608C31.4673 17.3589 31.1289 18.4424 30.6846 19.6113C30.2403 20.7803 29.7002 21.9253 29.0645 23.0464C28.1143 24.7349 27.0889 25.9653 25.9883 26.7378C24.8877 27.5103 23.7427 27.8965 22.5533 27.8965ZM32.0586 13.8999V13.9307V13.9204C32.0586 13.9136 32.0586 13.9067 32.0586 13.8999ZM21.3536 13.8999V13.9102V13.9307V13.8999ZM37.2803 22.4209C37.2803 22.626 37.2359 22.7695 37.147 22.8516C37.065 22.9268 36.9214 22.9644 36.7164 22.9644H34.6041C34.399 22.9644 34.252 22.9268 34.1631 22.8516C34.0811 22.7695 34.0401 22.626 34.0401 22.4209V8.54736C34.0401 8.3833 34.0743 8.25684 34.1426 8.16797C34.4297 7.79199 34.8502 7.38525 35.4039 6.94775C35.4996 6.87939 35.585 6.84521 35.6602 6.84521C35.7491 6.84521 35.8345 6.87939 35.9166 6.94775C36.2105 7.17334 36.4566 7.38525 36.6548 7.5835C36.8599 7.78174 37.0342 7.97656 37.1778 8.16797C37.2462 8.25684 37.2803 8.3833 37.2803 8.54736V16.5967H37.4034C38.4424 16.5967 39.1465 16.4121 39.5157 16.043C39.8917 15.667 40.0796 15.1475 40.0796 14.4844V13.9307C40.0796 13.7666 40.1138 13.6401 40.1822 13.5513C40.4693 13.1753 40.8897 12.7686 41.4434 12.3311C41.5391 12.2627 41.6246 12.2285 41.6998 12.2285C41.7886 12.2285 41.8741 12.2627 41.9561 12.3311C42.2501 12.5566 42.4962 12.7686 42.6944 12.9668C42.8995 13.165 43.0738 13.3599 43.2173 13.5513C43.2857 13.6401 43.3199 13.7666 43.3199 13.9307V14.4844C43.3199 14.874 43.2413 15.3047 43.084 15.7764C42.9337 16.248 42.6568 16.665 42.2535 17.0273C41.8502 17.3896 41.2759 17.6016 40.5308 17.6631V17.7144C41.105 17.9673 41.6006 18.3022 42.0176 18.7192C42.4346 19.1362 42.7833 19.584 43.0635 20.0625C43.3438 20.5342 43.5591 20.9888 43.7095 21.4263C43.8668 21.8569 43.9693 22.2227 44.0171 22.5234C44.065 22.8174 43.9659 22.9644 43.7198 22.9644H41.023C40.7906 22.9644 40.6573 22.8242 40.6231 22.5439C40.5753 22.2227 40.4693 21.8467 40.3052 21.416C40.148 20.9785 39.9327 20.5513 39.6592 20.1343C39.3926 19.7173 39.0679 19.3721 38.6851 19.0986C38.3091 18.8184 37.8819 18.6782 37.4034 18.6782H37.2803V22.4209ZM50.1925 23.2207C47.9093 23.2207 46.7677 22.0347 46.7677 19.6626V14.8535H45.609C45.4039 14.8535 45.2603 14.8125 45.1783 14.7305C45.1031 14.6416 45.0655 14.4946 45.0655 14.2896V13.0283C45.0655 12.8232 45.1031 12.6797 45.1783 12.5977C45.2603 12.5088 45.4039 12.4644 45.609 12.4644H46.7677V10.8135C46.7677 10.6494 46.8018 10.5229 46.8702 10.4341C47.1573 10.0581 47.5777 9.65137 48.1314 9.21387C48.2271 9.14551 48.3126 9.11133 48.3878 9.11133C48.4698 9.11133 48.5518 9.14551 48.6339 9.21387C48.9278 9.43945 49.1739 9.65137 49.3721 9.84961C49.5772 10.0479 49.7515 10.2427 49.8951 10.4341C49.9635 10.5229 49.9976 10.6494 49.9976 10.8135V12.4644H51.8126C52.0177 12.4644 52.1578 12.5088 52.233 12.5977C52.315 12.6797 52.356 12.8232 52.356 13.0283V14.2896C52.356 14.4946 52.315 14.6416 52.233 14.7305C52.1578 14.8125 52.0177 14.8535 51.8126 14.8535H49.9976V19.0986C49.9976 20.1924 50.3941 20.7393 51.1871 20.7393C51.3101 20.7393 51.4229 20.729 51.5255 20.7085C51.628 20.6812 51.7169 20.6538 51.7921 20.6265C51.9356 20.5718 52.0347 20.5513 52.0894 20.5649C52.151 20.5786 52.2056 20.6538 52.2535 20.7905L52.8482 22.3799C52.9097 22.5508 52.8687 22.6738 52.7252 22.749C52.6226 22.7969 52.3731 22.8857 51.9766 23.0156C51.587 23.1523 50.9923 23.2207 50.1925 23.2207ZM64.235 22.1543C63.6881 21.293 63.1515 20.3291 62.6251 19.2627C62.1056 18.1895 61.6339 17.0889 61.2101 15.9609C60.7863 14.8262 60.4479 13.7358 60.1949 12.6899C59.942 11.6372 59.8155 10.6973 59.8155 9.87012C59.8155 9.69238 59.8531 9.55225 59.9283 9.44971C60.0856 9.23096 60.277 9.00537 60.5026 8.77295C60.735 8.53369 61.0084 8.28418 61.3229 8.02441C61.4254 7.94238 61.5211 7.90137 61.61 7.90137C61.6988 7.90137 61.7877 7.94238 61.8766 8.02441C62.1979 8.28418 62.4713 8.53369 62.6969 8.77295C62.9225 9.00537 63.1139 9.23096 63.2711 9.44971C63.3463 9.55225 63.3839 9.70264 63.3839 9.90088V9.85986C63.3839 10.4409 63.4625 11.1416 63.6197 11.9619C63.7838 12.7754 64.006 13.6333 64.2863 14.5356C64.5734 15.4312 64.8981 16.3027 65.2604 17.1504C65.6295 17.9912 66.0226 18.7261 66.4396 19.355H66.5011C66.9591 18.7261 67.3727 17.9946 67.7418 17.1606C68.1178 16.3198 68.4391 15.4517 68.7057 14.5562C68.9791 13.6606 69.1876 12.8062 69.3312 11.9927C69.4816 11.1724 69.5568 10.4648 69.5568 9.87012V9.90088C69.5568 9.70264 69.5909 9.55225 69.6593 9.44971C69.9874 8.99854 70.4386 8.52344 71.0128 8.02441C71.1222 7.94238 71.2179 7.90137 71.2999 7.90137C71.3751 7.90137 71.464 7.94238 71.5665 8.02441C71.8741 8.28418 72.1373 8.53369 72.3561 8.77295C72.5748 9.00537 72.7628 9.23096 72.92 9.44971C72.9884 9.55908 73.0226 9.70605 73.0226 9.89062C73.0226 10.5127 72.9337 11.2339 72.756 12.0542C72.5851 12.8677 72.3492 13.729 72.0485 14.6382C71.7477 15.5474 71.4059 16.4565 71.0231 17.3657C70.6403 18.2749 70.2369 19.1431 69.8131 19.9702C69.3893 20.7905 68.9655 21.5186 68.5416 22.1543C68.1862 22.6943 67.7008 22.9644 67.0856 22.9644H65.6705C65.0553 22.9644 64.5768 22.6943 64.235 22.1543ZM59.8155 9.85986V9.87012V9.90088V9.85986ZM73.0226 9.87012V9.90088V9.89062V9.87012ZM77.1266 23.2207C76.1217 23.2207 75.3219 22.9404 74.7272 22.3799C74.1393 21.8125 73.8454 21.0332 73.8454 20.042C73.8454 19.5293 73.9376 19.0542 74.1222 18.6167C74.3136 18.1724 74.6417 17.7827 75.1066 17.4478C75.5783 17.106 76.2345 16.8325 77.0753 16.6274C77.923 16.4224 79.0031 16.3027 80.3156 16.2686C80.3156 15.6465 80.1583 15.1987 79.8439 14.9253C79.5363 14.6519 79.0714 14.5151 78.4494 14.5151C77.8888 14.5151 77.4308 14.6108 77.0753 14.8022C76.7199 14.9937 76.4977 15.1235 76.4088 15.1919C76.3131 15.2739 76.1969 15.3047 76.0602 15.2842C75.8756 15.2568 75.6774 15.209 75.4655 15.1406C75.2604 15.0723 75.0382 14.9937 74.799 14.9048C74.7648 14.8911 74.7272 14.8706 74.6862 14.8433C74.6452 14.8091 74.6212 14.7612 74.6144 14.6997C74.6144 14.6655 74.6178 14.6245 74.6246 14.5767C74.6315 14.522 74.6486 14.4263 74.6759 14.2896C74.7033 14.1528 74.7443 13.9854 74.799 13.7871C74.8537 13.582 74.9049 13.4248 74.9528 13.3154C75.0143 13.1992 75.1168 13.0898 75.2604 12.9873C75.3766 12.8916 75.7287 12.7378 76.3165 12.5259C76.9044 12.314 77.7555 12.208 78.8698 12.208C81.9391 12.208 83.4738 13.7017 83.4738 16.689V22.4927C83.4738 22.6226 83.4362 22.7354 83.361 22.8311C83.2926 22.9199 83.173 22.9644 83.0021 22.9644H81.464C81.3546 22.9644 81.2555 22.9507 81.1666 22.9233C81.0846 22.8892 81.006 22.8276 80.9308 22.7388L80.2951 21.9185H80.2233C79.9088 22.3765 79.485 22.708 78.9518 22.9131C78.4254 23.1182 77.817 23.2207 77.1266 23.2207ZM78.2545 20.8418C78.8834 20.8418 79.3585 20.6812 79.6798 20.3599C80.0011 20.0386 80.2062 19.707 80.2951 19.3652V18.2271C79.3449 18.2271 78.6305 18.3022 78.152 18.4526C77.6803 18.5962 77.3659 18.7876 77.2086 19.0269C77.0514 19.2593 76.9728 19.5122 76.9728 19.7856C76.9728 20.1821 77.0958 20.459 77.3419 20.6162C77.588 20.7666 77.8922 20.8418 78.2545 20.8418ZM96.3961 16.4326V22.4209C96.3961 22.626 96.3517 22.7695 96.2628 22.8516C96.1808 22.9268 96.0373 22.9644 95.8322 22.9644H93.7199C93.5148 22.9644 93.3678 22.9268 93.279 22.8516C93.1969 22.7695 93.1559 22.626 93.1559 22.4209V16.9658C93.1559 16.2207 92.9987 15.6772 92.6842 15.3354C92.3698 14.9937 91.9425 14.8228 91.4025 14.8228C90.8625 14.8228 90.4455 14.939 90.1515 15.1714C89.8644 15.4038 89.6422 15.6978 89.485 16.0532V22.4209C89.485 22.626 89.4406 22.7695 89.3517 22.8516C89.2697 22.9268 89.1261 22.9644 88.9211 22.9644H86.8087C86.6037 22.9644 86.4567 22.9268 86.3678 22.8516C86.2858 22.7695 86.2448 22.626 86.2448 22.4209V13.8281C86.2448 13.6641 86.279 13.5376 86.3473 13.4487C86.4909 13.2573 86.6618 13.0625 86.86 12.8643C87.0651 12.666 87.3146 12.4541 87.6086 12.2285C87.6974 12.1602 87.7829 12.126 87.8649 12.126C87.9401 12.126 88.0255 12.1602 88.1212 12.2285C88.4084 12.4541 88.6544 12.6694 88.8595 12.8745C89.0646 13.0796 89.2458 13.2915 89.403 13.5103H89.4543C89.5705 13.3599 89.7448 13.1855 89.9772 12.9873C90.2096 12.7822 90.5343 12.6011 90.9513 12.4438C91.3752 12.2866 91.9152 12.208 92.5714 12.208C93.214 12.208 93.8258 12.3379 94.4069 12.5977C94.9879 12.8574 95.463 13.2949 95.8322 13.9102C96.2082 14.5254 96.3961 15.3662 96.3961 16.4326ZM100.613 23.1797C100.469 23.2412 100.367 23.272 100.305 23.272C100.244 23.272 100.179 23.248 100.111 23.2002C99.9533 23.0908 99.7721 22.8242 99.5671 22.4004C99.3688 21.9697 99.2697 21.3101 99.2697 20.4214V8.54736C99.2697 8.3833 99.3039 8.25684 99.3722 8.16797C99.6594 7.79199 100.08 7.38525 100.633 6.94775C100.729 6.87939 100.815 6.84521 100.89 6.84521C100.979 6.84521 101.064 6.87939 101.146 6.94775C101.44 7.17334 101.686 7.38525 101.884 7.5835C102.09 7.78174 102.264 7.97656 102.407 8.16797C102.476 8.25684 102.51 8.3833 102.51 8.54736V19.7959C102.51 20.2471 102.548 20.6333 102.623 20.9546C102.698 21.269 102.787 21.522 102.889 21.7134C103.006 21.939 102.961 22.0996 102.756 22.1953L100.613 23.1797ZM104.953 9.01904C104.953 8.93018 104.98 8.85156 105.035 8.7832C105.09 8.71484 105.161 8.62598 105.25 8.5166C105.442 8.29785 105.664 8.06885 105.917 7.82959C106.17 7.5835 106.426 7.34766 106.686 7.12207C106.85 6.99219 106.973 6.92725 107.055 6.92725C107.137 6.92725 107.263 6.99219 107.434 7.12207C107.988 7.60059 108.46 8.06543 108.849 8.5166C108.938 8.61914 109.01 8.70801 109.065 8.7832C109.126 8.85156 109.157 8.93018 109.157 9.01904C109.157 9.10791 109.126 9.18652 109.065 9.25488C109.01 9.32324 108.935 9.41553 108.839 9.53174C108.654 9.74365 108.439 9.97266 108.193 10.2188C107.947 10.458 107.694 10.687 107.434 10.9058C107.339 10.9878 107.263 11.0425 107.209 11.0698C107.154 11.0903 107.103 11.1006 107.055 11.1006C107.007 11.1006 106.956 11.0903 106.901 11.0698C106.853 11.0425 106.775 10.9878 106.665 10.9058C106.392 10.687 106.135 10.458 105.896 10.2188C105.657 9.97266 105.442 9.73682 105.25 9.51123C105.161 9.40186 105.09 9.31641 105.035 9.25488C104.98 9.18652 104.953 9.10791 104.953 9.01904ZM108.665 22.4209C108.665 22.626 108.62 22.7695 108.531 22.8516C108.449 22.9268 108.306 22.9644 108.101 22.9644H105.988C105.783 22.9644 105.636 22.9268 105.548 22.8516C105.466 22.7695 105.425 22.626 105.425 22.4209V13.0078C105.425 12.8027 105.466 12.6626 105.548 12.5874C105.636 12.5054 105.783 12.4644 105.988 12.4644H108.101C108.306 12.4644 108.449 12.5054 108.531 12.5874C108.62 12.6626 108.665 12.8027 108.665 13.0078V22.4209ZM121.71 13.4487V21.7646C121.71 23.7607 121.139 25.2817 119.998 26.3276C118.863 27.3735 117.304 27.8965 115.322 27.8965C114.502 27.8965 113.852 27.835 113.374 27.7119C112.895 27.5957 112.533 27.4829 112.287 27.3735C112.13 27.2983 112.027 27.2197 111.979 27.1377C111.911 27.0283 111.832 26.8677 111.743 26.6558C111.661 26.4438 111.583 26.2114 111.508 25.9585C111.487 25.8628 111.484 25.791 111.497 25.7432C111.525 25.6748 111.576 25.603 111.651 25.5278C111.774 25.4048 111.948 25.2612 112.174 25.0972C112.406 24.9331 112.584 24.8271 112.707 24.7793C112.837 24.7314 112.957 24.7383 113.066 24.7998C113.244 24.8955 113.497 25.0015 113.825 25.1177C114.16 25.2407 114.628 25.3022 115.23 25.3022C116.187 25.3022 116.966 25.0562 117.568 24.564C118.169 24.0718 118.47 23.313 118.47 22.2876V21.9185H118.429C118.279 22.1099 118.084 22.3047 117.844 22.5029C117.605 22.7012 117.294 22.8687 116.911 23.0054C116.535 23.1421 116.05 23.2104 115.455 23.2104C114.423 23.2104 113.575 22.9883 112.912 22.5439C112.256 22.0928 111.771 21.4741 111.456 20.688C111.149 19.9019 110.995 19.0063 110.995 18.0015C110.995 16.9009 111.176 15.9131 111.538 15.0381C111.901 14.1631 112.509 13.4727 113.363 12.9668C114.218 12.4541 115.387 12.1978 116.87 12.1978C117.759 12.1978 118.504 12.2627 119.106 12.3926C119.714 12.5225 120.223 12.6831 120.634 12.8745C121.044 13.0659 121.403 13.2573 121.71 13.4487ZM116.758 14.6792C115.965 14.6792 115.36 14.9458 114.943 15.479C114.526 16.0122 114.317 16.8394 114.317 17.9604C114.317 19.7173 115.042 20.5957 116.491 20.5957C117.058 20.5957 117.492 20.4795 117.793 20.2471C118.094 20.0146 118.32 19.7207 118.47 19.3652V15.1304C118.32 15.021 118.108 14.9185 117.834 14.8228C117.561 14.7271 117.202 14.6792 116.758 14.6792Z" fill="#2B2B2B"/>
<path d="M1291.52 8.40564C1291.38 8.40564 1291.27 8.37231 1291.18 8.30566C1291.08 8.23901 1290.96 8.14417 1290.83 8.02112C1290.7 7.89807 1290.55 7.74683 1290.39 7.56738C1290.32 7.49561 1290.29 7.43152 1290.29 7.37512C1290.29 7.31873 1290.32 7.25464 1290.39 7.18286C1290.7 6.82397 1290.99 6.55994 1291.25 6.39075C1291.32 6.34973 1291.4 6.32922 1291.52 6.32922C1291.86 6.32922 1292.16 6.19849 1292.42 5.93701C1292.67 5.67554 1292.79 5.25256 1292.78 4.66809C1292.78 4.03748 1292.62 3.59656 1292.32 3.34534C1292.01 3.09412 1291.6 2.96851 1291.07 2.96851H1290.7C1290.36 2.96851 1290.13 3.04028 1290.01 3.18384C1289.89 3.32739 1289.82 3.57349 1289.82 3.92212V11.6818C1289.82 11.8356 1289.79 11.9432 1289.72 12.0048C1289.66 12.0612 1289.55 12.0894 1289.4 12.0894H1287.76C1287.61 12.0894 1287.5 12.0612 1287.43 12.0048C1287.37 11.9432 1287.34 11.8356 1287.34 11.6818V3.12231C1287.34 2.60962 1287.39 2.20459 1287.48 1.90723C1287.58 1.60474 1287.76 1.3894 1288.03 1.26123C1288.31 1.12793 1288.71 1.06128 1289.24 1.06128H1291.07C1292.54 1.06128 1293.63 1.35095 1294.34 1.9303C1295.05 2.50452 1295.4 3.38635 1295.4 4.57581C1295.4 5.4679 1295.21 6.19592 1294.84 6.75989C1294.47 7.32385 1293.99 7.73914 1293.39 8.00574C1292.8 8.27234 1292.18 8.40564 1291.52 8.40564ZM1298.94 12.2816C1298.39 12.2816 1297.93 12.2355 1297.57 12.1432C1297.21 12.0509 1296.92 11.9407 1296.7 11.8125C1296.49 11.6792 1296.32 11.5587 1296.19 11.451C1296.1 11.3639 1296.09 11.2665 1296.16 11.1588L1296.95 9.99756C1297.06 9.8335 1297.19 9.82324 1297.33 9.9668C1297.48 10.1104 1297.68 10.2513 1297.93 10.3898C1298.19 10.5231 1298.51 10.5897 1298.89 10.5897C1299.22 10.5897 1299.5 10.5333 1299.72 10.4205C1299.94 10.3026 1300.05 10.1334 1300.05 9.91296C1300.05 9.75916 1300 9.63354 1299.9 9.53613C1299.8 9.43872 1299.63 9.33875 1299.38 9.23621C1299.14 9.13367 1298.8 9.00293 1298.35 8.84399C1297.7 8.60815 1297.21 8.32361 1296.88 7.99036C1296.54 7.6571 1296.38 7.17004 1296.38 6.52917C1296.38 5.93958 1296.54 5.46021 1296.86 5.09106C1297.19 4.72192 1297.61 4.45276 1298.12 4.28357C1298.63 4.10925 1299.16 4.02209 1299.72 4.02209C1300.42 4.02209 1300.91 4.08875 1301.19 4.22205C1301.48 4.35022 1301.66 4.4502 1301.75 4.52197C1301.82 4.58862 1301.88 4.66553 1301.91 4.75269C1301.97 4.95264 1302.03 5.21667 1302.06 5.5448C1302.08 5.7345 1302.03 5.86011 1301.92 5.92163C1301.85 5.95752 1301.76 5.99597 1301.62 6.03699C1301.49 6.078 1301.36 6.11389 1301.22 6.14465C1301.09 6.17542 1300.99 6.1908 1300.92 6.1908C1300.9 6.1908 1300.88 6.18567 1300.85 6.17542C1300.83 6.16003 1300.79 6.12671 1300.74 6.07544C1300.67 6.00879 1300.56 5.93188 1300.39 5.84473C1300.23 5.75757 1300.01 5.71399 1299.73 5.71399C1299.45 5.71399 1299.22 5.76013 1299.03 5.85242C1298.85 5.93958 1298.75 6.09595 1298.75 6.32153C1298.75 6.56763 1298.87 6.7522 1299.11 6.87524C1299.35 6.99829 1299.74 7.15723 1300.29 7.35205C1300.72 7.50073 1301.1 7.66479 1301.42 7.84424C1301.74 8.01855 1301.99 8.24927 1302.16 8.53638C1302.34 8.81836 1302.42 9.20032 1302.42 9.68225C1302.42 10.3077 1302.25 10.8127 1301.91 11.1973C1301.57 11.5767 1301.13 11.8535 1300.6 12.0278C1300.07 12.197 1299.52 12.2816 1298.94 12.2816ZM1304.25 15.7885C1304.07 15.7885 1303.92 15.7679 1303.82 15.7269C1303.73 15.691 1303.64 15.6449 1303.58 15.5885C1303.44 15.4603 1303.3 15.2809 1303.15 15.0502C1303.11 14.9938 1303.07 14.9271 1303.03 14.8502C1302.99 14.7784 1302.97 14.7169 1302.97 14.6656C1302.97 14.6093 1302.98 14.558 1303.01 14.5118C1303.03 14.4657 1303.07 14.4221 1303.1 14.3811C1303.18 14.2734 1303.28 14.1606 1303.4 14.0427C1303.52 13.9299 1303.62 13.8402 1303.7 13.7736C1303.76 13.7274 1303.8 13.6967 1303.84 13.6813C1303.88 13.671 1303.91 13.6659 1303.93 13.6659C1303.96 13.6659 1304 13.671 1304.05 13.6813C1304.1 13.6915 1304.18 13.6967 1304.28 13.6967C1304.63 13.6967 1305 13.5813 1305.39 13.3506C1305.77 13.1199 1306.15 12.6866 1306.52 12.0509C1306.13 11.692 1305.75 11.2434 1305.37 10.7051C1305 10.1616 1304.66 9.57458 1304.35 8.94397C1304.05 8.30823 1303.81 7.67505 1303.62 7.04443C1303.44 6.41382 1303.36 5.83191 1303.36 5.29871C1303.36 5.18591 1303.38 5.09619 1303.44 5.02954C1303.68 4.7373 1304.01 4.43225 1304.45 4.11438C1304.52 4.06311 1304.59 4.03748 1304.65 4.03748C1304.72 4.03748 1304.79 4.06311 1304.86 4.11438C1305.1 4.28357 1305.3 4.4425 1305.45 4.59119C1305.62 4.73987 1305.76 4.88599 1305.87 5.02954C1305.93 5.09619 1305.95 5.19104 1305.95 5.31409V5.28333C1305.95 5.68835 1306 6.11646 1306.1 6.56763C1306.2 7.0188 1306.33 7.45972 1306.5 7.89038C1306.67 8.31592 1306.86 8.703 1307.07 9.05164C1307.28 9.39514 1307.5 9.66943 1307.72 9.87451H1307.76C1307.86 9.67969 1307.98 9.40027 1308.1 9.03625C1308.23 8.66711 1308.35 8.25952 1308.46 7.81348C1308.57 7.3623 1308.67 6.91626 1308.74 6.47534C1308.81 6.0293 1308.85 5.63452 1308.85 5.29102V5.31409C1308.85 5.19104 1308.87 5.09619 1308.92 5.02954C1309.04 4.88599 1309.18 4.73987 1309.34 4.59119C1309.5 4.4425 1309.69 4.28357 1309.91 4.11438C1309.99 4.06311 1310.05 4.03748 1310.11 4.03748C1310.19 4.03748 1310.25 4.06311 1310.31 4.11438C1310.55 4.28357 1310.74 4.4425 1310.9 4.59119C1311.06 4.73987 1311.19 4.88599 1311.31 5.02954C1311.36 5.09619 1311.38 5.18848 1311.38 5.3064C1311.38 5.77295 1311.29 6.38306 1311.11 7.13672C1310.94 7.88525 1310.69 8.69788 1310.35 9.57458C1310.02 10.4513 1309.62 11.3101 1309.14 12.1509C1308.43 13.4172 1307.66 14.3401 1306.83 14.9194C1306.01 15.4988 1305.15 15.7885 1304.25 15.7885ZM1311.38 5.29102V5.31409V5.3064C1311.38 5.30127 1311.38 5.29614 1311.38 5.29102ZM1303.36 5.29102V5.29871V5.31409V5.29102ZM1315.3 11.6818C1315.3 11.8356 1315.27 11.9432 1315.2 12.0048C1315.14 12.0612 1315.03 12.0894 1314.88 12.0894H1313.29C1313.14 12.0894 1313.03 12.0612 1312.96 12.0048C1312.9 11.9432 1312.87 11.8356 1312.87 11.6818V1.27661C1312.87 1.15356 1312.9 1.05872 1312.95 0.992065C1313.16 0.710083 1313.48 0.405029 1313.89 0.0769043C1313.96 0.0256348 1314.03 0 1314.09 0C1314.15 0 1314.22 0.0256348 1314.28 0.0769043C1314.5 0.246094 1314.68 0.405029 1314.83 0.553711C1314.98 0.702393 1315.12 0.848511 1315.22 0.992065C1315.27 1.05872 1315.3 1.15356 1315.3 1.27661V7.3136H1315.39C1316.17 7.3136 1316.7 7.17517 1316.98 6.89832C1317.26 6.61633 1317.4 6.22668 1317.4 5.72937V5.31409C1317.4 5.19104 1317.43 5.09619 1317.48 5.02954C1317.69 4.74756 1318.01 4.4425 1318.42 4.11438C1318.49 4.06311 1318.56 4.03748 1318.61 4.03748C1318.68 4.03748 1318.75 4.06311 1318.81 4.11438C1319.03 4.28357 1319.21 4.4425 1319.36 4.59119C1319.51 4.73987 1319.65 4.88599 1319.75 5.02954C1319.8 5.09619 1319.83 5.19104 1319.83 5.31409V5.72937C1319.83 6.02161 1319.77 6.3446 1319.65 6.69836C1319.54 7.05212 1319.33 7.36487 1319.03 7.6366C1318.73 7.90833 1318.3 8.06726 1317.74 8.1134V8.15186C1318.17 8.34155 1318.54 8.59277 1318.85 8.90552C1319.17 9.21826 1319.43 9.55408 1319.64 9.91296C1319.85 10.2667 1320.01 10.6077 1320.12 10.9358C1320.24 11.2588 1320.32 11.5331 1320.35 11.7587C1320.39 11.9791 1320.31 12.0894 1320.13 12.0894H1318.11C1317.93 12.0894 1317.83 11.9843 1317.81 11.774C1317.77 11.5331 1317.69 11.2511 1317.57 10.9281C1317.45 10.6 1317.29 10.2795 1317.08 9.9668C1316.88 9.65405 1316.64 9.39514 1316.35 9.19006C1316.07 8.97986 1315.75 8.87476 1315.39 8.87476H1315.3V11.6818ZM1324.98 12.2816C1323.27 12.2816 1322.42 11.3921 1322.42 9.61304V6.00623H1321.55C1321.39 6.00623 1321.29 5.97546 1321.22 5.91394C1321.17 5.84729 1321.14 5.73706 1321.14 5.58325V4.63733C1321.14 4.48352 1321.17 4.37585 1321.22 4.31433C1321.29 4.24768 1321.39 4.21436 1321.55 4.21436H1322.42V2.9762C1322.42 2.85315 1322.44 2.7583 1322.49 2.69165C1322.71 2.40967 1323.02 2.10461 1323.44 1.77649C1323.51 1.72522 1323.57 1.69958 1323.63 1.69958C1323.69 1.69958 1323.75 1.72522 1323.82 1.77649C1324.04 1.94568 1324.22 2.10461 1324.37 2.2533C1324.52 2.40198 1324.65 2.5481 1324.76 2.69165C1324.81 2.7583 1324.84 2.85315 1324.84 2.9762V4.21436H1326.2C1326.35 4.21436 1326.46 4.24768 1326.51 4.31433C1326.58 4.37585 1326.61 4.48352 1326.61 4.63733V5.58325C1326.61 5.73706 1326.58 5.84729 1326.51 5.91394C1326.46 5.97546 1326.35 6.00623 1326.2 6.00623H1324.84V9.19006C1324.84 10.0104 1325.14 10.4205 1325.73 10.4205C1325.82 10.4205 1325.91 10.4128 1325.98 10.3975C1326.06 10.377 1326.13 10.3564 1326.18 10.3359C1326.29 10.2949 1326.37 10.2795 1326.41 10.2898C1326.45 10.3 1326.49 10.3564 1326.53 10.459L1326.98 11.651C1327.02 11.7792 1326.99 11.8715 1326.88 11.9279C1326.81 11.9637 1326.62 12.0304 1326.32 12.1278C1326.03 12.2303 1325.58 12.2816 1324.98 12.2816ZM1335.52 11.4818C1335.11 10.8358 1334.7 10.1129 1334.31 9.31311C1333.92 8.50818 1333.57 7.68274 1333.25 6.83679C1332.93 5.98572 1332.68 5.16797 1332.49 4.38354C1332.3 3.59399 1332.2 2.88904 1332.2 2.26868C1332.2 2.13538 1332.23 2.03027 1332.29 1.95337C1332.4 1.78931 1332.55 1.62012 1332.72 1.4458C1332.89 1.26636 1333.1 1.07922 1333.33 0.884399C1333.41 0.822876 1333.48 0.792114 1333.55 0.792114C1333.61 0.792114 1333.68 0.822876 1333.75 0.884399C1333.99 1.07922 1334.19 1.26636 1334.36 1.4458C1334.53 1.62012 1334.68 1.78931 1334.79 1.95337C1334.85 2.03027 1334.88 2.14307 1334.88 2.29175V2.26099C1334.88 2.69678 1334.94 3.22229 1335.05 3.83752C1335.18 4.44763 1335.34 5.09106 1335.55 5.76782C1335.77 6.43945 1336.01 7.09314 1336.29 7.72888C1336.56 8.3595 1336.86 8.91064 1337.17 9.38232H1337.22C1337.56 8.91064 1337.87 8.36206 1338.15 7.73657C1338.43 7.10596 1338.67 6.45483 1338.87 5.7832C1339.07 5.11157 1339.23 4.4707 1339.34 3.8606C1339.45 3.24536 1339.51 2.71472 1339.51 2.26868V2.29175C1339.51 2.14307 1339.53 2.03027 1339.58 1.95337C1339.83 1.61499 1340.17 1.25867 1340.6 0.884399C1340.68 0.822876 1340.75 0.792114 1340.81 0.792114C1340.87 0.792114 1340.94 0.822876 1341.01 0.884399C1341.25 1.07922 1341.44 1.26636 1341.61 1.4458C1341.77 1.62012 1341.91 1.78931 1342.03 1.95337C1342.08 2.0354 1342.11 2.14563 1342.11 2.28406C1342.11 2.75061 1342.04 3.2915 1341.91 3.90674C1341.78 4.51685 1341.6 5.16284 1341.38 5.84473C1341.15 6.52661 1340.89 7.2085 1340.61 7.89038C1340.32 8.57227 1340.02 9.22339 1339.7 9.84375C1339.38 10.459 1339.06 11.005 1338.75 11.4818C1338.48 11.8868 1338.12 12.0894 1337.65 12.0894H1336.59C1336.13 12.0894 1335.77 11.8868 1335.52 11.4818ZM1332.2 2.26099V2.26868V2.29175V2.26099ZM1342.11 2.26868V2.29175V2.28406V2.26868ZM1345.18 12.2816C1344.43 12.2816 1343.83 12.0714 1343.39 11.651C1342.94 11.2255 1342.72 10.641 1342.72 9.89758C1342.72 9.51306 1342.79 9.15674 1342.93 8.82861C1343.08 8.49536 1343.32 8.20312 1343.67 7.9519C1344.02 7.69556 1344.52 7.49048 1345.15 7.33667C1345.78 7.18286 1346.59 7.09314 1347.58 7.0675C1347.58 6.60095 1347.46 6.26514 1347.22 6.06006C1346.99 5.85498 1346.64 5.75244 1346.18 5.75244C1345.76 5.75244 1345.41 5.82422 1345.15 5.96777C1344.88 6.11133 1344.71 6.20874 1344.65 6.26001C1344.57 6.32153 1344.49 6.3446 1344.38 6.32922C1344.25 6.30872 1344.1 6.27283 1343.94 6.22156C1343.79 6.17029 1343.62 6.11133 1343.44 6.04468C1343.41 6.03442 1343.39 6.01904 1343.35 5.99854C1343.32 5.9729 1343.31 5.93701 1343.3 5.89087C1343.3 5.86523 1343.3 5.83447 1343.31 5.79858C1343.31 5.75757 1343.33 5.68579 1343.35 5.58325C1343.37 5.48071 1343.4 5.3551 1343.44 5.20642C1343.48 5.05261 1343.52 4.93469 1343.55 4.85266C1343.6 4.7655 1343.68 4.68347 1343.79 4.60657C1343.87 4.53479 1344.14 4.41943 1344.58 4.2605C1345.02 4.10156 1345.66 4.02209 1346.49 4.02209C1348.79 4.02209 1349.95 5.14233 1349.95 7.38281V11.7356C1349.95 11.833 1349.92 11.9176 1349.86 11.9894C1349.81 12.056 1349.72 12.0894 1349.59 12.0894H1348.44C1348.36 12.0894 1348.28 12.0791 1348.21 12.0586C1348.15 12.033 1348.09 11.9868 1348.04 11.9202L1347.56 11.3049H1347.51C1347.27 11.6484 1346.95 11.8971 1346.55 12.0509C1346.16 12.2047 1345.7 12.2816 1345.18 12.2816ZM1346.03 10.4974C1346.5 10.4974 1346.86 10.377 1347.1 10.136C1347.34 9.89502 1347.49 9.64636 1347.56 9.39001V8.53638C1346.85 8.53638 1346.31 8.59277 1345.95 8.70557C1345.6 8.81323 1345.36 8.95679 1345.25 9.13623C1345.13 9.31055 1345.07 9.50024 1345.07 9.70532C1345.07 10.0027 1345.16 10.2103 1345.35 10.3282C1345.53 10.441 1345.76 10.4974 1346.03 10.4974ZM1359.64 7.19055V11.6818C1359.64 11.8356 1359.6 11.9432 1359.54 12.0048C1359.48 12.0612 1359.37 12.0894 1359.21 12.0894H1357.63C1357.48 12.0894 1357.37 12.0612 1357.3 12.0048C1357.24 11.9432 1357.21 11.8356 1357.21 11.6818V7.59045C1357.21 7.03162 1357.09 6.62402 1356.85 6.36768C1356.62 6.11133 1356.3 5.98315 1355.89 5.98315C1355.49 5.98315 1355.17 6.07031 1354.95 6.24463C1354.74 6.41895 1354.57 6.6394 1354.45 6.90601V11.6818C1354.45 11.8356 1354.42 11.9432 1354.35 12.0048C1354.29 12.0612 1354.18 12.0894 1354.03 12.0894H1352.45C1352.29 12.0894 1352.18 12.0612 1352.12 12.0048C1352.05 11.9432 1352.02 11.8356 1352.02 11.6818V5.23718C1352.02 5.11414 1352.05 5.01929 1352.1 4.95264C1352.21 4.80908 1352.34 4.66296 1352.48 4.51428C1352.64 4.3656 1352.83 4.20667 1353.05 4.03748C1353.11 3.98621 1353.18 3.96057 1353.24 3.96057C1353.29 3.96057 1353.36 3.98621 1353.43 4.03748C1353.65 4.20667 1353.83 4.36816 1353.98 4.52197C1354.14 4.67578 1354.27 4.83472 1354.39 4.99878H1354.43C1354.52 4.88599 1354.65 4.75525 1354.82 4.60657C1355 4.45276 1355.24 4.31689 1355.55 4.19897C1355.87 4.08105 1356.28 4.02209 1356.77 4.02209C1357.25 4.02209 1357.71 4.11951 1358.15 4.31433C1358.58 4.50916 1358.94 4.83728 1359.21 5.29871C1359.5 5.76013 1359.64 6.39075 1359.64 7.19055ZM1362.8 12.2509C1362.69 12.297 1362.61 12.3201 1362.57 12.3201C1362.52 12.3201 1362.47 12.3021 1362.42 12.2662C1362.3 12.1842 1362.17 11.9843 1362.02 11.6664C1361.87 11.3434 1361.79 10.8486 1361.79 10.1821V1.27661C1361.79 1.15356 1361.82 1.05872 1361.87 0.992065C1362.08 0.710083 1362.4 0.405029 1362.81 0.0769043C1362.89 0.0256348 1362.95 0 1363.01 0C1363.07 0 1363.14 0.0256348 1363.2 0.0769043C1363.42 0.246094 1363.6 0.405029 1363.75 0.553711C1363.91 0.702393 1364.04 0.848511 1364.15 0.992065C1364.2 1.05872 1364.22 1.15356 1364.22 1.27661V9.71301C1364.22 10.0514 1364.25 10.3411 1364.31 10.582C1364.36 10.8179 1364.43 11.0076 1364.51 11.1511C1364.59 11.3203 1364.56 11.4408 1364.41 11.5126L1362.8 12.2509ZM1366.05 1.63037C1366.05 1.56372 1366.07 1.50476 1366.12 1.45349C1366.16 1.40222 1366.21 1.33557 1366.28 1.25354C1366.42 1.08948 1366.59 0.917725 1366.78 0.738281C1366.97 0.553711 1367.16 0.376831 1367.35 0.207642C1367.48 0.110229 1367.57 0.0615234 1367.63 0.0615234C1367.69 0.0615234 1367.79 0.110229 1367.92 0.207642C1368.33 0.566528 1368.68 0.915161 1368.98 1.25354C1369.04 1.33044 1369.1 1.39709 1369.14 1.45349C1369.18 1.50476 1369.21 1.56372 1369.21 1.63037C1369.21 1.69702 1369.18 1.75598 1369.14 1.80725C1369.1 1.85852 1369.04 1.92773 1368.97 2.01489C1368.83 2.17383 1368.67 2.34558 1368.48 2.53015C1368.3 2.70959 1368.11 2.88135 1367.92 3.04541C1367.84 3.10693 1367.79 3.14795 1367.75 3.16846C1367.71 3.18384 1367.67 3.19153 1367.63 3.19153C1367.6 3.19153 1367.56 3.18384 1367.52 3.16846C1367.48 3.14795 1367.42 3.10693 1367.34 3.04541C1367.13 2.88135 1366.94 2.70959 1366.76 2.53015C1366.58 2.34558 1366.42 2.1687 1366.28 1.99951C1366.21 1.91748 1366.16 1.85339 1366.12 1.80725C1366.07 1.75598 1366.05 1.69702 1366.05 1.63037ZM1368.84 11.6818C1368.84 11.8356 1368.81 11.9432 1368.74 12.0048C1368.68 12.0612 1368.57 12.0894 1368.42 12.0894H1366.83C1366.68 12.0894 1366.57 12.0612 1366.5 12.0048C1366.44 11.9432 1366.41 11.8356 1366.41 11.6818V4.62195C1366.41 4.46814 1366.44 4.36304 1366.5 4.30664C1366.57 4.24512 1366.68 4.21436 1366.83 4.21436H1368.42C1368.57 4.21436 1368.68 4.24512 1368.74 4.30664C1368.81 4.36304 1368.84 4.46814 1368.84 4.62195V11.6818ZM1378.62 4.95264V11.1896C1378.62 12.6866 1378.19 13.8274 1377.34 14.6118C1376.49 15.3962 1375.32 15.7885 1373.83 15.7885C1373.22 15.7885 1372.73 15.7423 1372.37 15.65C1372.01 15.5629 1371.74 15.4783 1371.55 15.3962C1371.44 15.3398 1371.36 15.2809 1371.32 15.2194C1371.27 15.1373 1371.21 15.0168 1371.15 14.8579C1371.09 14.699 1371.03 14.5247 1370.97 14.335C1370.96 14.2632 1370.95 14.2094 1370.96 14.1735C1370.98 14.1222 1371.02 14.0684 1371.08 14.012C1371.17 13.9197 1371.3 13.812 1371.47 13.689C1371.64 13.5659 1371.78 13.4865 1371.87 13.4506C1371.97 13.4147 1372.06 13.4198 1372.14 13.4659C1372.27 13.5377 1372.46 13.6172 1372.71 13.7043C1372.96 13.7966 1373.31 13.8428 1373.76 13.8428C1374.48 13.8428 1375.06 13.6582 1375.52 13.2891C1375.97 12.9199 1376.19 12.3508 1376.19 11.5818V11.3049H1376.16C1376.05 11.4485 1375.9 11.5946 1375.72 11.7433C1375.54 11.892 1375.31 12.0176 1375.02 12.1201C1374.74 12.2227 1374.38 12.2739 1373.93 12.2739C1373.16 12.2739 1372.52 12.1073 1372.02 11.774C1371.53 11.4357 1371.17 10.9717 1370.93 10.3821C1370.7 9.79248 1370.59 9.12085 1370.59 8.36719C1370.59 7.54175 1370.72 6.8009 1370.99 6.14465C1371.27 5.4884 1371.72 4.97058 1372.36 4.59119C1373 4.20667 1373.88 4.0144 1374.99 4.0144C1375.66 4.0144 1376.22 4.06311 1376.67 4.16052C1377.13 4.25793 1377.51 4.37842 1377.81 4.52197C1378.12 4.66553 1378.39 4.80908 1378.62 4.95264ZM1374.91 5.87549C1374.31 5.87549 1373.86 6.07544 1373.55 6.47534C1373.23 6.87524 1373.08 7.49561 1373.08 8.33643C1373.08 9.65405 1373.62 10.3129 1374.71 10.3129C1375.13 10.3129 1375.46 10.2257 1375.68 10.0514C1375.91 9.87708 1376.08 9.65662 1376.19 9.39001V6.21387C1376.08 6.13184 1375.92 6.05493 1375.72 5.98315C1375.51 5.91138 1375.24 5.87549 1374.91 5.87549Z" fill="#2B2B2B"/>
</svg>
