<svg width="122" height="22" viewBox="0 0 122 22" fill="none" xmlns="http://www.w3.org/2000/svg">
<path d="M5.56787 11.2075C5.39014 11.2075 5.23975 11.1631 5.1167 11.0742C4.98682 10.9854 4.83301 10.8589 4.65527 10.6948C4.47754 10.5308 4.2793 10.3291 4.06055 10.0898C3.97852 9.99414 3.9375 9.90869 3.9375 9.8335C3.9375 9.7583 3.97852 9.67285 4.06055 9.57715C4.48438 9.09863 4.87061 8.74658 5.21924 8.521C5.30127 8.46631 5.41748 8.43896 5.56787 8.43896C6.03271 8.43896 6.43262 8.26465 6.76758 7.91602C7.10938 7.56738 7.27344 7.00342 7.25977 6.22412C7.25293 5.3833 7.04443 4.79541 6.63428 4.46045C6.23096 4.12549 5.67725 3.95801 4.97314 3.95801H4.48096C4.02979 3.95801 3.72217 4.05371 3.55811 4.24512C3.39404 4.43652 3.31201 4.76465 3.31201 5.22949V15.5757C3.31201 15.7808 3.26758 15.9243 3.17871 16.0063C3.09668 16.0815 2.95312 16.1191 2.74805 16.1191H0.563965C0.358887 16.1191 0.211914 16.0815 0.123047 16.0063C0.0410156 15.9243 0 15.7808 0 15.5757V4.16309C0 3.47949 0.0615234 2.93945 0.18457 2.54297C0.314453 2.13965 0.560547 1.85254 0.922852 1.68164C1.29199 1.50391 1.82861 1.41504 2.53271 1.41504H4.97314C6.93506 1.41504 8.3877 1.80127 9.33105 2.57373C10.2744 3.33936 10.7461 4.51514 10.7461 6.10107C10.7461 7.29053 10.4966 8.26123 9.99756 9.01318C9.50537 9.76514 8.86279 10.3188 8.06982 10.6743C7.28369 11.0298 6.44971 11.2075 5.56787 11.2075ZM15.4654 16.3755C14.7339 16.3755 14.1255 16.314 13.6402 16.1909C13.1616 16.0679 12.7754 15.9209 12.4815 15.75C12.1944 15.5723 11.9688 15.4116 11.8047 15.2681C11.6817 15.1519 11.668 15.022 11.7637 14.8784L12.8096 13.3301C12.96 13.1113 13.1309 13.0977 13.3223 13.2891C13.5205 13.4805 13.7871 13.6685 14.1221 13.853C14.4639 14.0308 14.8877 14.1196 15.3936 14.1196C15.8447 14.1196 16.2139 14.0444 16.501 13.894C16.7949 13.7368 16.9419 13.5112 16.9419 13.2173C16.9419 13.0122 16.877 12.8447 16.7471 12.7148C16.6172 12.585 16.3882 12.4517 16.0601 12.3149C15.732 12.1782 15.2739 12.0039 14.6861 11.792C13.8179 11.4775 13.1616 11.0981 12.7173 10.6538C12.273 10.2095 12.0508 9.56006 12.0508 8.70557C12.0508 7.91943 12.2661 7.28027 12.6968 6.78809C13.1343 6.2959 13.6914 5.93701 14.3682 5.71143C15.0518 5.479 15.7627 5.36279 16.501 5.36279C17.4375 5.36279 18.0938 5.45166 18.4697 5.62939C18.8526 5.80029 19.0987 5.93359 19.208 6.0293C19.3106 6.11816 19.3823 6.2207 19.4234 6.33691C19.5122 6.60352 19.5806 6.95557 19.6284 7.39307C19.6558 7.646 19.5908 7.81348 19.4336 7.89551C19.3516 7.94336 19.2217 7.99463 19.044 8.04932C18.8662 8.104 18.6885 8.15186 18.5108 8.19287C18.333 8.23389 18.1997 8.25439 18.1109 8.25439C18.0835 8.25439 18.0528 8.24756 18.0186 8.23389C17.9912 8.21338 17.94 8.16895 17.8648 8.10059C17.7759 8.01172 17.6221 7.90918 17.4033 7.79297C17.1914 7.67676 16.8975 7.61865 16.5215 7.61865C16.1524 7.61865 15.8413 7.68018 15.5884 7.80322C15.3423 7.91943 15.2193 8.12793 15.2193 8.42871C15.2193 8.75684 15.3765 9.00293 15.6909 9.16699C16.0122 9.33105 16.5386 9.54297 17.27 9.80273C17.8443 10.001 18.3433 10.2197 18.7671 10.459C19.1978 10.6914 19.5293 10.999 19.7617 11.3818C19.9942 11.7578 20.1104 12.2671 20.1104 12.9097C20.1104 13.7437 19.8814 14.417 19.4234 14.9297C18.9722 15.4355 18.3911 15.8047 17.6802 16.0371C16.9761 16.2627 16.2378 16.3755 15.4654 16.3755ZM22.5533 21.0513C22.3003 21.0513 22.1089 21.0239 21.979 20.9692C21.8492 20.9214 21.7398 20.8599 21.6509 20.7847C21.4732 20.6138 21.2818 20.3745 21.0767 20.0669C21.0288 19.9917 20.9776 19.9028 20.9229 19.8003C20.8682 19.7046 20.8409 19.6226 20.8409 19.5542C20.8409 19.479 20.8579 19.4106 20.8921 19.3491C20.9263 19.2876 20.9673 19.2295 21.0152 19.1748C21.1245 19.0312 21.2579 18.8809 21.4151 18.7236C21.5723 18.5732 21.7056 18.4536 21.815 18.3647C21.8902 18.3032 21.9517 18.2622 21.9995 18.2417C22.0474 18.228 22.0884 18.2212 22.1226 18.2212C22.1568 18.2212 22.208 18.228 22.2764 18.2417C22.3448 18.2554 22.4473 18.2622 22.584 18.2622C23.0557 18.2622 23.5479 18.1084 24.0606 17.8008C24.5733 17.4932 25.0791 16.9155 25.5782 16.0679C25.0586 15.5894 24.5459 14.9912 24.0401 14.2734C23.5411 13.5488 23.0899 12.7661 22.6866 11.9253C22.2832 11.0776 21.9585 10.2334 21.7124 9.39258C21.4732 8.55176 21.3536 7.77588 21.3536 7.06494C21.3536 6.91455 21.3912 6.79492 21.4663 6.70605C21.7808 6.31641 22.2286 5.90967 22.8096 5.48584C22.9121 5.41748 23.0044 5.3833 23.0865 5.3833C23.1753 5.3833 23.2676 5.41748 23.3633 5.48584C23.6778 5.71143 23.941 5.92334 24.1529 6.12158C24.3716 6.31982 24.5562 6.51465 24.7066 6.70605C24.7818 6.79492 24.8194 6.92139 24.8194 7.08545V7.04443C24.8194 7.58447 24.8843 8.15527 25.0142 8.75684C25.1441 9.3584 25.3218 9.94629 25.5474 10.5205C25.773 11.0879 26.0259 11.604 26.3062 12.0688C26.5865 12.5269 26.877 12.8926 27.1778 13.166H27.229C27.3658 12.9062 27.5162 12.5337 27.6802 12.0483C27.8511 11.5562 28.0118 11.0127 28.1621 10.418C28.3125 9.81641 28.4356 9.22168 28.5313 8.63379C28.627 8.03906 28.6748 7.5127 28.6748 7.05469V7.08545C28.6748 6.92139 28.709 6.79492 28.7774 6.70605C28.9346 6.51465 29.1192 6.31982 29.3311 6.12158C29.543 5.92334 29.7994 5.71143 30.1001 5.48584C30.1958 5.41748 30.2847 5.3833 30.3667 5.3833C30.4624 5.3833 30.5513 5.41748 30.6333 5.48584C30.941 5.71143 31.2007 5.92334 31.4126 6.12158C31.6245 6.31982 31.8057 6.51465 31.9561 6.70605C32.0245 6.79492 32.0586 6.91797 32.0586 7.0752C32.0518 7.69727 31.9322 8.51074 31.6997 9.51562C31.4673 10.5137 31.1289 11.5972 30.6846 12.7661C30.2403 13.9351 29.7002 15.0801 29.0645 16.2012C28.1143 17.8896 27.0889 19.1201 25.9883 19.8926C24.8877 20.665 23.7427 21.0513 22.5533 21.0513ZM32.0586 7.05469V7.08545V7.0752C32.0586 7.06836 32.0586 7.06152 32.0586 7.05469ZM21.3536 7.05469V7.06494V7.08545V7.05469ZM37.2803 15.5757C37.2803 15.7808 37.2359 15.9243 37.147 16.0063C37.065 16.0815 36.9214 16.1191 36.7164 16.1191H34.6041C34.399 16.1191 34.252 16.0815 34.1631 16.0063C34.0811 15.9243 34.0401 15.7808 34.0401 15.5757V1.70215C34.0401 1.53809 34.0743 1.41162 34.1426 1.32275C34.4297 0.946777 34.8502 0.540039 35.4039 0.102539C35.4996 0.0341797 35.585 0 35.6602 0C35.7491 0 35.8345 0.0341797 35.9166 0.102539C36.2105 0.328125 36.4566 0.540039 36.6548 0.738281C36.8599 0.936523 37.0342 1.13135 37.1778 1.32275C37.2462 1.41162 37.2803 1.53809 37.2803 1.70215V9.75146H37.4034C38.4424 9.75146 39.1465 9.56689 39.5157 9.19775C39.8917 8.82178 40.0796 8.30225 40.0796 7.63916V7.08545C40.0796 6.92139 40.1138 6.79492 40.1822 6.70605C40.4693 6.33008 40.8897 5.92334 41.4434 5.48584C41.5391 5.41748 41.6246 5.3833 41.6998 5.3833C41.7886 5.3833 41.8741 5.41748 41.9561 5.48584C42.2501 5.71143 42.4962 5.92334 42.6944 6.12158C42.8995 6.31982 43.0738 6.51465 43.2173 6.70605C43.2857 6.79492 43.3199 6.92139 43.3199 7.08545V7.63916C43.3199 8.02881 43.2413 8.45947 43.084 8.93115C42.9337 9.40283 42.6568 9.81982 42.2535 10.1821C41.8502 10.5444 41.2759 10.7563 40.5308 10.8179V10.8691C41.105 11.1221 41.6006 11.457 42.0176 11.874C42.4346 12.291 42.7833 12.7388 43.0635 13.2173C43.3438 13.689 43.5591 14.1436 43.7095 14.5811C43.8668 15.0117 43.9693 15.3774 44.0171 15.6782C44.065 15.9722 43.9659 16.1191 43.7198 16.1191H41.023C40.7906 16.1191 40.6573 15.979 40.6231 15.6987C40.5753 15.3774 40.4693 15.0015 40.3052 14.5708C40.148 14.1333 39.9327 13.7061 39.6592 13.2891C39.3926 12.8721 39.0679 12.5269 38.6851 12.2534C38.3091 11.9731 37.8819 11.833 37.4034 11.833H37.2803V15.5757ZM50.1925 16.3755C47.9093 16.3755 46.7677 15.1895 46.7677 12.8174V8.0083H45.609C45.4039 8.0083 45.2603 7.96729 45.1783 7.88525C45.1031 7.79639 45.0655 7.64941 45.0655 7.44434V6.18311C45.0655 5.97803 45.1031 5.83447 45.1783 5.75244C45.2603 5.66357 45.4039 5.61914 45.609 5.61914H46.7677V3.96826C46.7677 3.8042 46.8018 3.67773 46.8702 3.58887C47.1573 3.21289 47.5777 2.80615 48.1314 2.36865C48.2271 2.30029 48.3126 2.26611 48.3878 2.26611C48.4698 2.26611 48.5518 2.30029 48.6339 2.36865C48.9278 2.59424 49.1739 2.80615 49.3721 3.00439C49.5772 3.20264 49.7515 3.39746 49.8951 3.58887C49.9635 3.67773 49.9976 3.8042 49.9976 3.96826V5.61914H51.8126C52.0177 5.61914 52.1578 5.66357 52.233 5.75244C52.315 5.83447 52.356 5.97803 52.356 6.18311V7.44434C52.356 7.64941 52.315 7.79639 52.233 7.88525C52.1578 7.96729 52.0177 8.0083 51.8126 8.0083H49.9976V12.2534C49.9976 13.3472 50.3941 13.894 51.1871 13.894C51.3101 13.894 51.4229 13.8838 51.5255 13.8633C51.628 13.8359 51.7169 13.8086 51.7921 13.7812C51.9356 13.7266 52.0347 13.7061 52.0894 13.7197C52.151 13.7334 52.2056 13.8086 52.2535 13.9453L52.8482 15.5347C52.9097 15.7056 52.8687 15.8286 52.7252 15.9038C52.6226 15.9517 52.3731 16.0405 51.9766 16.1704C51.587 16.3071 50.9923 16.3755 50.1925 16.3755ZM64.235 15.3091C63.6881 14.4478 63.1515 13.4839 62.6251 12.4175C62.1056 11.3442 61.6339 10.2437 61.2101 9.11572C60.7863 7.98096 60.4479 6.89062 60.1949 5.84473C59.942 4.79199 59.8155 3.85205 59.8155 3.0249C59.8155 2.84717 59.8531 2.70703 59.9283 2.60449C60.0856 2.38574 60.277 2.16016 60.5026 1.92773C60.735 1.68848 61.0084 1.43896 61.3229 1.1792C61.4254 1.09717 61.5211 1.05615 61.61 1.05615C61.6988 1.05615 61.7877 1.09717 61.8766 1.1792C62.1979 1.43896 62.4713 1.68848 62.6969 1.92773C62.9225 2.16016 63.1139 2.38574 63.2711 2.60449C63.3463 2.70703 63.3839 2.85742 63.3839 3.05566V3.01465C63.3839 3.5957 63.4625 4.29639 63.6197 5.1167C63.7838 5.93018 64.006 6.78809 64.2863 7.69043C64.5734 8.58594 64.8981 9.45752 65.2604 10.3052C65.6295 11.146 66.0226 11.8809 66.4396 12.5098H66.5011C66.9591 11.8809 67.3727 11.1494 67.7418 10.3154C68.1178 9.47461 68.4391 8.60645 68.7057 7.71094C68.9791 6.81543 69.1876 5.96094 69.3312 5.14746C69.4816 4.32715 69.5568 3.61963 69.5568 3.0249V3.05566C69.5568 2.85742 69.5909 2.70703 69.6593 2.60449C69.9874 2.15332 70.4386 1.67822 71.0128 1.1792C71.1222 1.09717 71.2179 1.05615 71.2999 1.05615C71.3751 1.05615 71.464 1.09717 71.5665 1.1792C71.8741 1.43896 72.1373 1.68848 72.3561 1.92773C72.5748 2.16016 72.7628 2.38574 72.92 2.60449C72.9884 2.71387 73.0226 2.86084 73.0226 3.04541C73.0226 3.66748 72.9337 4.38867 72.756 5.20898C72.5851 6.02246 72.3492 6.88379 72.0485 7.79297C71.7477 8.70215 71.4059 9.61133 71.0231 10.5205C70.6403 11.4297 70.2369 12.2979 69.8131 13.125C69.3893 13.9453 68.9655 14.6733 68.5416 15.3091C68.1862 15.8491 67.7008 16.1191 67.0856 16.1191H65.6705C65.0553 16.1191 64.5768 15.8491 64.235 15.3091ZM59.8155 3.01465V3.0249V3.05566V3.01465ZM73.0226 3.0249V3.05566V3.04541V3.0249ZM77.1266 16.3755C76.1217 16.3755 75.3219 16.0952 74.7272 15.5347C74.1393 14.9673 73.8454 14.188 73.8454 13.1968C73.8454 12.6841 73.9376 12.209 74.1222 11.7715C74.3136 11.3271 74.6417 10.9375 75.1066 10.6025C75.5783 10.2607 76.2345 9.9873 77.0753 9.78223C77.923 9.57715 79.0031 9.45752 80.3156 9.42334C80.3156 8.80127 80.1583 8.35352 79.8439 8.08008C79.5363 7.80664 79.0714 7.66992 78.4494 7.66992C77.8888 7.66992 77.4308 7.76562 77.0753 7.95703C76.7199 8.14844 76.4977 8.27832 76.4088 8.34668C76.3131 8.42871 76.1969 8.45947 76.0602 8.43896C75.8756 8.41162 75.6774 8.36377 75.4655 8.29541C75.2604 8.22705 75.0382 8.14844 74.799 8.05957C74.7648 8.0459 74.7272 8.02539 74.6862 7.99805C74.6452 7.96387 74.6212 7.91602 74.6144 7.85449C74.6144 7.82031 74.6178 7.7793 74.6246 7.73145C74.6315 7.67676 74.6486 7.58105 74.6759 7.44434C74.7033 7.30762 74.7443 7.14014 74.799 6.94189C74.8537 6.73682 74.9049 6.57959 74.9528 6.47021C75.0143 6.354 75.1168 6.24463 75.2604 6.14209C75.3766 6.04639 75.7287 5.89258 76.3165 5.68066C76.9044 5.46875 77.7555 5.36279 78.8698 5.36279C81.9391 5.36279 83.4738 6.85645 83.4738 9.84375V15.6475C83.4738 15.7773 83.4362 15.8901 83.361 15.9858C83.2926 16.0747 83.173 16.1191 83.0021 16.1191H81.464C81.3546 16.1191 81.2555 16.1055 81.1666 16.0781C81.0846 16.0439 81.006 15.9824 80.9308 15.8936L80.2951 15.0732H80.2233C79.9088 15.5312 79.485 15.8628 78.9518 16.0679C78.4254 16.2729 77.817 16.3755 77.1266 16.3755ZM78.2545 13.9966C78.8834 13.9966 79.3585 13.8359 79.6798 13.5146C80.0011 13.1934 80.2062 12.8618 80.2951 12.52V11.3818C79.3449 11.3818 78.6305 11.457 78.152 11.6074C77.6803 11.751 77.3659 11.9424 77.2086 12.1816C77.0514 12.4141 76.9728 12.667 76.9728 12.9404C76.9728 13.3369 77.0958 13.6138 77.3419 13.771C77.588 13.9214 77.8922 13.9966 78.2545 13.9966ZM96.3961 9.5874V15.5757C96.3961 15.7808 96.3517 15.9243 96.2628 16.0063C96.1808 16.0815 96.0373 16.1191 95.8322 16.1191H93.7199C93.5148 16.1191 93.3678 16.0815 93.279 16.0063C93.1969 15.9243 93.1559 15.7808 93.1559 15.5757V10.1206C93.1559 9.37549 92.9987 8.83203 92.6842 8.49023C92.3698 8.14844 91.9425 7.97754 91.4025 7.97754C90.8625 7.97754 90.4455 8.09375 90.1515 8.32617C89.8644 8.55859 89.6422 8.85254 89.485 9.20801V15.5757C89.485 15.7808 89.4406 15.9243 89.3517 16.0063C89.2697 16.0815 89.1261 16.1191 88.9211 16.1191H86.8087C86.6037 16.1191 86.4567 16.0815 86.3678 16.0063C86.2858 15.9243 86.2448 15.7808 86.2448 15.5757V6.98291C86.2448 6.81885 86.279 6.69238 86.3473 6.60352C86.4909 6.41211 86.6618 6.21729 86.86 6.01904C87.0651 5.8208 87.3146 5.60889 87.6086 5.3833C87.6974 5.31494 87.7829 5.28076 87.8649 5.28076C87.9401 5.28076 88.0255 5.31494 88.1212 5.3833C88.4084 5.60889 88.6544 5.82422 88.8595 6.0293C89.0646 6.23438 89.2458 6.44629 89.403 6.66504H89.4543C89.5705 6.51465 89.7448 6.34033 89.9772 6.14209C90.2096 5.93701 90.5343 5.75586 90.9513 5.59863C91.3752 5.44141 91.9152 5.36279 92.5714 5.36279C93.214 5.36279 93.8258 5.49268 94.4069 5.75244C94.9879 6.01221 95.463 6.44971 95.8322 7.06494C96.2082 7.68018 96.3961 8.521 96.3961 9.5874ZM100.613 16.3345C100.469 16.396 100.367 16.4268 100.305 16.4268C100.244 16.4268 100.179 16.4028 100.111 16.355C99.9533 16.2456 99.7721 15.979 99.5671 15.5552C99.3688 15.1245 99.2697 14.4648 99.2697 13.5762V1.70215C99.2697 1.53809 99.3039 1.41162 99.3722 1.32275C99.6594 0.946777 100.08 0.540039 100.633 0.102539C100.729 0.0341797 100.815 0 100.89 0C100.979 0 101.064 0.0341797 101.146 0.102539C101.44 0.328125 101.686 0.540039 101.884 0.738281C102.09 0.936523 102.264 1.13135 102.407 1.32275C102.476 1.41162 102.51 1.53809 102.51 1.70215V12.9507C102.51 13.4019 102.548 13.7881 102.623 14.1094C102.698 14.4238 102.787 14.6768 102.889 14.8682C103.006 15.0938 102.961 15.2544 102.756 15.3501L100.613 16.3345ZM104.953 2.17383C104.953 2.08496 104.98 2.00635 105.035 1.93799C105.09 1.86963 105.161 1.78076 105.25 1.67139C105.442 1.45264 105.664 1.22363 105.917 0.984375C106.17 0.738281 106.426 0.502441 106.686 0.276855C106.85 0.146973 106.973 0.0820312 107.055 0.0820312C107.137 0.0820312 107.263 0.146973 107.434 0.276855C107.988 0.755371 108.46 1.22021 108.849 1.67139C108.938 1.77393 109.01 1.86279 109.065 1.93799C109.126 2.00635 109.157 2.08496 109.157 2.17383C109.157 2.2627 109.126 2.34131 109.065 2.40967C109.01 2.47803 108.935 2.57031 108.839 2.68652C108.654 2.89844 108.439 3.12744 108.193 3.37354C107.947 3.61279 107.694 3.8418 107.434 4.06055C107.339 4.14258 107.263 4.19727 107.209 4.22461C107.154 4.24512 107.103 4.25537 107.055 4.25537C107.007 4.25537 106.956 4.24512 106.901 4.22461C106.853 4.19727 106.775 4.14258 106.665 4.06055C106.392 3.8418 106.135 3.61279 105.896 3.37354C105.657 3.12744 105.442 2.8916 105.25 2.66602C105.161 2.55664 105.09 2.47119 105.035 2.40967C104.98 2.34131 104.953 2.2627 104.953 2.17383ZM108.665 15.5757C108.665 15.7808 108.62 15.9243 108.531 16.0063C108.449 16.0815 108.306 16.1191 108.101 16.1191H105.988C105.783 16.1191 105.636 16.0815 105.548 16.0063C105.466 15.9243 105.425 15.7808 105.425 15.5757V6.1626C105.425 5.95752 105.466 5.81738 105.548 5.74219C105.636 5.66016 105.783 5.61914 105.988 5.61914H108.101C108.306 5.61914 108.449 5.66016 108.531 5.74219C108.62 5.81738 108.665 5.95752 108.665 6.1626V15.5757ZM121.71 6.60352V14.9194C121.71 16.9155 121.139 18.4365 119.998 19.4824C118.863 20.5283 117.304 21.0513 115.322 21.0513C114.502 21.0513 113.852 20.9897 113.374 20.8667C112.895 20.7505 112.533 20.6377 112.287 20.5283C112.13 20.4531 112.027 20.3745 111.979 20.2925C111.911 20.1831 111.832 20.0225 111.743 19.8105C111.661 19.5986 111.583 19.3662 111.508 19.1133C111.487 19.0176 111.484 18.9458 111.497 18.8979C111.525 18.8296 111.576 18.7578 111.651 18.6826C111.774 18.5596 111.948 18.416 112.174 18.252C112.406 18.0879 112.584 17.9819 112.707 17.9341C112.837 17.8862 112.957 17.8931 113.066 17.9546C113.244 18.0503 113.497 18.1562 113.825 18.2725C114.16 18.3955 114.628 18.457 115.23 18.457C116.187 18.457 116.966 18.2109 117.568 17.7188C118.169 17.2266 118.47 16.4678 118.47 15.4424V15.0732H118.429C118.279 15.2646 118.084 15.4595 117.844 15.6577C117.605 15.856 117.294 16.0234 116.911 16.1602C116.535 16.2969 116.05 16.3652 115.455 16.3652C114.423 16.3652 113.575 16.1431 112.912 15.6987C112.256 15.2476 111.771 14.6289 111.456 13.8428C111.149 13.0566 110.995 12.1611 110.995 11.1562C110.995 10.0557 111.176 9.06787 111.538 8.19287C111.901 7.31787 112.509 6.62744 113.363 6.12158C114.218 5.60889 115.387 5.35254 116.87 5.35254C117.759 5.35254 118.504 5.41748 119.106 5.54736C119.714 5.67725 120.223 5.83789 120.634 6.0293C121.044 6.2207 121.403 6.41211 121.71 6.60352ZM116.758 7.83398C115.965 7.83398 115.36 8.10059 114.943 8.63379C114.526 9.16699 114.317 9.99414 114.317 11.1152C114.317 12.8721 115.042 13.7505 116.491 13.7505C117.058 13.7505 117.492 13.6343 117.793 13.4019C118.094 13.1694 118.32 12.8755 118.47 12.52V8.28516C118.32 8.17578 118.108 8.07324 117.834 7.97754C117.561 7.88184 117.202 7.83398 116.758 7.83398Z" fill="#2B2B2B"/>
</svg>
